<?xml version="1.0" standalone="no"?>
<!DOCTYPE svg PUBLIC "-//W3C//DTD SVG 20010904//EN"
 "http://www.w3.org/TR/2001/REC-SVG-20010904/DTD/svg10.dtd">
<svg version="1.0" xmlns="http://www.w3.org/2000/svg"
 width="104.000000pt" height="76.000000pt" viewBox="0 0 104.000000 76.000000"
 preserveAspectRatio="xMidYMid meet">

<g transform="translate(0.000000,76.000000) scale(0.100000,-0.100000)"
fill="#fff" stroke="none">
<path d="M200 395 c0 -218 1 -225 20 -225 19 0 20 7 20 95 l0 95 70 0 70 0 47
-95 48 -95 45 0 45 0 48 95 47 95 70 0 70 0 0 -95 c0 -88 1 -95 20 -95 19 0
20 7 20 225 l0 225 -111 0 c-86 0 -117 -4 -140 -17 -28 -17 -59 -76 -59 -114
0 -37 29 -89 58 -106 l30 -17 -47 -88 c-25 -48 -48 -88 -51 -88 -3 0 -26 40
-51 88 l-47 88 30 17 c29 17 58 69 58 106 0 38 -31 97 -59 114 -23 13 -54 17
-140 17 l-111 0 0 -225z m237 163 c23 -22 31 -75 17 -113 -12 -29 -60 -45
-139 -45 l-75 0 0 90 0 90 87 0 c75 0 90 -3 110 -22z m363 -68 l0 -90 -75 0
c-79 0 -127 16 -139 45 -13 36 -6 89 16 112 19 21 30 23 110 23 l88 0 0 -90z"/>
</g>
</svg>
